<mxfile host="app.diagrams.net" modified="2020-10-16T13:10:22.942Z" agent="5.0 (X11; Linux x86_64) AppleWebKit/537.36 (KHTML, like Gecko) Chrome/86.0.4240.75 Safari/537.36" etag="K3e1vMggAAnXhdjzHFCo" version="13.8.0" type="github">
  <diagram id="wYuFkEHbXA2bmls81Dar" name="Page-1">
    <mxGraphModel dx="868" dy="462" grid="1" gridSize="10" guides="1" tooltips="1" connect="1" arrows="1" fold="1" page="1" pageScale="1" pageWidth="827" pageHeight="1169" math="0" shadow="0">
      <root>
        <mxCell id="0" />
        <mxCell id="1" parent="0" />
        <mxCell id="O4SxLYArdxyDyKLTkws4-3" value="" style="rounded=0;whiteSpace=wrap;html=1;flipV=1;flipH=1;" vertex="1" parent="1">
          <mxGeometry x="80" y="60" width="640" height="380" as="geometry" />
        </mxCell>
        <mxCell id="O4SxLYArdxyDyKLTkws4-4" value="&lt;b&gt;&lt;font style=&quot;font-size: 20px&quot;&gt;plans to the website goes here&amp;nbsp;&lt;/font&gt;&lt;/b&gt;" style="ellipse;whiteSpace=wrap;html=1;aspect=fixed;flipV=1;flipH=1;" vertex="1" parent="1">
          <mxGeometry x="310" y="160" width="180" height="180" as="geometry" />
        </mxCell>
      </root>
    </mxGraphModel>
  </diagram>
</mxfile>
